<mxfile host="65bd71144e">
    <diagram id="lRAjFa31DLNiUJZDi6S-" name="Page-1">
        <mxGraphModel dx="2951" dy="1133" grid="1" gridSize="10" guides="1" tooltips="1" connect="1" arrows="1" fold="1" page="1" pageScale="1" pageWidth="827" pageHeight="1169" background="#FFFFFF" math="0" shadow="1">
            <root>
                <mxCell id="0"/>
                <mxCell id="1" parent="0"/>
                <mxCell id="81" value="" style="swimlane;startSize=0;labelBackgroundColor=none;fontColor=#000000;strokeColor=#FFFFFF;fontSize=18;" parent="1" vertex="1">
                    <mxGeometry x="-600" y="290" width="1290" height="900" as="geometry"/>
                </mxCell>
                <mxCell id="87" value="hasWriten" style="ellipse;whiteSpace=wrap;html=1;align=center;newEdgeStyle={&quot;edgeStyle&quot;:&quot;entityRelationEdgeStyle&quot;,&quot;startArrow&quot;:&quot;none&quot;,&quot;endArrow&quot;:&quot;none&quot;,&quot;segment&quot;:10,&quot;curved&quot;:1};treeFolding=1;treeMoving=1;strokeColor=#ae4132;labelBackgroundColor=none;fillColor=#fad9d5;fontStyle=1;fontColor=#000000;fontSize=18;" parent="81" vertex="1">
                    <mxGeometry x="693.5" y="150" width="130" height="65" as="geometry"/>
                </mxCell>
                <mxCell id="19" value="autor" style="swimlane;fontStyle=1;childLayout=stackLayout;horizontal=1;startSize=30;horizontalStack=0;resizeParent=1;resizeParentMax=0;resizeLast=0;collapsible=1;marginBottom=0;strokeColor=#10739e;labelBackgroundColor=none;fillColor=#b1ddf0;fontColor=#000000;fontSize=18;" parent="81" vertex="1">
                    <mxGeometry x="893.5" y="90" width="200" height="150" as="geometry"/>
                </mxCell>
                <mxCell id="155" value="Id: String" style="text;align=left;verticalAlign=middle;spacingLeft=4;spacingRight=4;overflow=hidden;points=[[0,0.5],[1,0.5]];portConstraint=eastwest;rotatable=0;strokeColor=#000000;fontColor=#000000;labelBackgroundColor=none;fontStyle=5;fontSize=18;" parent="19" vertex="1">
                    <mxGeometry y="30" width="200" height="30" as="geometry"/>
                </mxCell>
                <mxCell id="20" value="Name: String" style="text;align=left;verticalAlign=middle;spacingLeft=4;spacingRight=4;overflow=hidden;points=[[0,0.5],[1,0.5]];portConstraint=eastwest;rotatable=0;strokeColor=#000000;fontColor=#000000;labelBackgroundColor=none;fontStyle=1;fontSize=18;" parent="19" vertex="1">
                    <mxGeometry y="60" width="200" height="30" as="geometry"/>
                </mxCell>
                <mxCell id="21" value="Surname: String" style="text;align=left;verticalAlign=middle;spacingLeft=4;spacingRight=4;overflow=hidden;points=[[0,0.5],[1,0.5]];portConstraint=eastwest;rotatable=0;strokeColor=#000000;fontColor=#000000;labelBackgroundColor=none;fontStyle=1;fontSize=18;" parent="19" vertex="1">
                    <mxGeometry y="90" width="200" height="30" as="geometry"/>
                </mxCell>
                <mxCell id="22" value="BirthDate: date" style="text;align=left;verticalAlign=middle;spacingLeft=4;spacingRight=4;overflow=hidden;points=[[0,0.5],[1,0.5]];portConstraint=eastwest;rotatable=0;strokeColor=#000000;fontColor=#000000;labelBackgroundColor=none;fontStyle=1;fontSize=18;" parent="19" vertex="1">
                    <mxGeometry y="120" width="200" height="30" as="geometry"/>
                </mxCell>
                <mxCell id="46" style="endArrow=none;html=1;exitX=0.006;exitY=1.056;exitDx=0;exitDy=0;entryX=1;entryY=0.5;entryDx=0;entryDy=0;exitPerimeter=0;strokeColor=#000000;fontColor=#000000;labelBackgroundColor=none;fontStyle=1;fontSize=18;" parent="81" source="20" target="87" edge="1">
                    <mxGeometry relative="1" as="geometry">
                        <mxPoint x="923.5" y="154.50599999999997" as="targetPoint"/>
                        <mxPoint x="1113.5" y="154.5" as="sourcePoint"/>
                    </mxGeometry>
                </mxCell>
                <mxCell id="7" value="Book" style="swimlane;fontStyle=1;childLayout=stackLayout;horizontal=1;startSize=30;horizontalStack=0;resizeParent=1;resizeParentMax=0;resizeLast=0;collapsible=1;marginBottom=0;strokeColor=#10739e;labelBackgroundColor=none;fillColor=#b1ddf0;fontColor=#000000;fontSize=18;" parent="81" vertex="1">
                    <mxGeometry x="427.5" y="120" width="186" height="120" as="geometry"/>
                </mxCell>
                <mxCell id="9" value="Title: String" style="text;align=left;verticalAlign=middle;spacingLeft=4;spacingRight=4;overflow=hidden;points=[[0,0.5],[1,0.5]];portConstraint=eastwest;rotatable=0;strokeColor=#000000;fontColor=#000000;labelBackgroundColor=none;fontStyle=5;fontSize=18;" parent="7" vertex="1">
                    <mxGeometry y="30" width="186" height="30" as="geometry"/>
                </mxCell>
                <mxCell id="27" value="FirstEditionYear:  Int" style="text;align=left;verticalAlign=middle;spacingLeft=4;spacingRight=4;overflow=hidden;points=[[0,0.5],[1,0.5]];portConstraint=eastwest;rotatable=0;strokeColor=#000000;fontColor=#000000;labelBackgroundColor=none;fontStyle=5;fontSize=18;" parent="7" vertex="1">
                    <mxGeometry y="60" width="186" height="30" as="geometry"/>
                </mxCell>
                <mxCell id="74" value="description:  String" style="text;align=left;verticalAlign=middle;spacingLeft=4;spacingRight=4;overflow=hidden;points=[[0,0.5],[1,0.5]];portConstraint=eastwest;rotatable=0;strokeColor=#000000;fontColor=#000000;labelBackgroundColor=none;fontStyle=1;fontSize=18;" parent="7" vertex="1">
                    <mxGeometry y="90" width="186" height="30" as="geometry"/>
                </mxCell>
                <mxCell id="45" style="endArrow=none;html=1;exitX=0;exitY=0.5;exitDx=0;exitDy=0;entryX=1;entryY=1.072;entryDx=0;entryDy=0;strokeColor=#000000;fontColor=#000000;labelBackgroundColor=none;fontStyle=1;entryPerimeter=0;fontSize=18;" parent="81" source="87" target="9" edge="1">
                    <mxGeometry relative="1" as="geometry">
                        <mxPoint x="653.5" y="177.5" as="targetPoint"/>
                        <mxPoint x="773.5" y="152.50000000000023" as="sourcePoint"/>
                    </mxGeometry>
                </mxCell>
                <mxCell id="51" style="endArrow=none;html=1;exitX=0;exitY=0.5;exitDx=0;exitDy=0;entryX=1;entryY=0.5;entryDx=0;entryDy=0;strokeColor=#000000;fontColor=#000000;labelBackgroundColor=none;fontStyle=1;fontSize=18;" parent="81" target="158" edge="1">
                    <mxGeometry relative="1" as="geometry">
                        <mxPoint x="433.5" y="155" as="targetPoint"/>
                        <mxPoint x="557.5" y="340" as="sourcePoint"/>
                    </mxGeometry>
                </mxCell>
                <mxCell id="73" value="1...1" style="text;html=1;align=center;verticalAlign=middle;whiteSpace=wrap;rounded=0;strokeColor=none;fontColor=#000000;labelBackgroundColor=none;fontStyle=1;fontSize=18;" parent="81" vertex="1">
                    <mxGeometry x="513.5" y="280" width="60" height="30" as="geometry"/>
                </mxCell>
                <mxCell id="23" value="user" style="swimlane;fontStyle=1;childLayout=stackLayout;horizontal=1;startSize=30;horizontalStack=0;resizeParent=1;resizeParentMax=0;resizeLast=0;collapsible=1;marginBottom=0;strokeColor=#10739e;labelBackgroundColor=none;fillColor=#b1ddf0;fontColor=#000000;fontSize=18;" parent="81" vertex="1">
                    <mxGeometry x="810.12" y="520" width="224.5" height="270" as="geometry"/>
                </mxCell>
                <mxCell id="26" value="login: String" style="text;align=left;verticalAlign=middle;spacingLeft=4;spacingRight=4;overflow=hidden;points=[[0,0.5],[1,0.5]];portConstraint=eastwest;rotatable=0;strokeColor=#000000;fontColor=#000000;labelBackgroundColor=none;fontStyle=5;fontSize=18;" parent="23" vertex="1">
                    <mxGeometry y="30" width="224.5" height="30" as="geometry"/>
                </mxCell>
                <mxCell id="145" value="hashedPassword: String" style="text;align=left;verticalAlign=middle;spacingLeft=4;spacingRight=4;overflow=hidden;points=[[0,0.5],[1,0.5]];portConstraint=eastwest;rotatable=0;strokeColor=#000000;fontColor=#000000;labelBackgroundColor=none;fontStyle=5;fontSize=18;" parent="23" vertex="1">
                    <mxGeometry y="60" width="224.5" height="30" as="geometry"/>
                </mxCell>
                <mxCell id="54" value="category: Char" style="text;align=left;verticalAlign=middle;spacingLeft=4;spacingRight=4;overflow=hidden;points=[[0,0.5],[1,0.5]];portConstraint=eastwest;rotatable=0;strokeColor=#000000;fontColor=#000000;labelBackgroundColor=none;fontStyle=1;fontSize=18;" parent="23" vertex="1">
                    <mxGeometry y="90" width="224.5" height="30" as="geometry"/>
                </mxCell>
                <mxCell id="24" value="Name: String" style="text;align=left;verticalAlign=middle;spacingLeft=4;spacingRight=4;overflow=hidden;points=[[0,0.5],[1,0.5]];portConstraint=eastwest;rotatable=0;strokeColor=#000000;fontColor=#000000;labelBackgroundColor=none;fontStyle=1;fontSize=18;" parent="23" vertex="1">
                    <mxGeometry y="120" width="224.5" height="30" as="geometry"/>
                </mxCell>
                <mxCell id="25" value="Surname: String" style="text;align=left;verticalAlign=middle;spacingLeft=4;spacingRight=4;overflow=hidden;points=[[0,0.5],[1,0.5]];portConstraint=eastwest;rotatable=0;strokeColor=#000000;fontColor=#000000;labelBackgroundColor=none;fontStyle=1;fontSize=18;" parent="23" vertex="1">
                    <mxGeometry y="150" width="224.5" height="30" as="geometry"/>
                </mxCell>
                <mxCell id="29" value="Email: String" style="text;align=left;verticalAlign=middle;spacingLeft=4;spacingRight=4;overflow=hidden;points=[[0,0.5],[1,0.5]];portConstraint=eastwest;rotatable=0;strokeColor=#000000;fontColor=#000000;labelBackgroundColor=none;fontStyle=1;fontSize=18;" parent="23" vertex="1">
                    <mxGeometry y="180" width="224.5" height="30" as="geometry"/>
                </mxCell>
                <mxCell id="55" value="maxPossession: Int(j)" style="text;align=left;verticalAlign=middle;spacingLeft=4;spacingRight=4;overflow=hidden;points=[[0,0.5],[1,0.5]];portConstraint=eastwest;rotatable=0;strokeColor=#000000;fontColor=#000000;labelBackgroundColor=none;fontStyle=1;fontSize=18;" parent="23" vertex="1">
                    <mxGeometry y="210" width="224.5" height="30" as="geometry"/>
                </mxCell>
                <mxCell id="67" value="maxBorrowing: Int" style="text;align=left;verticalAlign=middle;spacingLeft=4;spacingRight=4;overflow=hidden;points=[[0,0.5],[1,0.5]];portConstraint=eastwest;rotatable=0;strokeColor=#000000;fontColor=#000000;labelBackgroundColor=none;fontStyle=1;fontSize=18;" parent="23" vertex="1">
                    <mxGeometry y="240" width="224.5" height="30" as="geometry"/>
                </mxCell>
                <mxCell id="99" value="ChangeCategory" style="swimlane;fontStyle=1;childLayout=stackLayout;horizontal=1;startSize=26;horizontalStack=0;resizeParent=1;resizeParentMax=0;resizeLast=0;collapsible=1;marginBottom=0;strokeColor=#ae4132;labelBackgroundColor=none;fillColor=#fad9d5;fontColor=#000000;fontSize=18;" parent="81" vertex="1">
                    <mxGeometry x="493.5" y="620" width="250.5" height="78" as="geometry"/>
                </mxCell>
                <mxCell id="100" value="changingDate: mm/dd/yy" style="text;align=left;verticalAlign=top;spacingLeft=4;spacingRight=4;overflow=hidden;rotatable=0;points=[[0,0.5],[1,0.5]];portConstraint=eastwest;strokeColor=#000000;fontColor=#000000;labelBackgroundColor=none;fontStyle=1;fontSize=18;" parent="99" vertex="1">
                    <mxGeometry y="26" width="250.5" height="26" as="geometry"/>
                </mxCell>
                <mxCell id="144" value="newUserCategory: Char" style="text;align=left;verticalAlign=top;spacingLeft=4;spacingRight=4;overflow=hidden;rotatable=0;points=[[0,0.5],[1,0.5]];portConstraint=eastwest;strokeColor=#000000;fontColor=#000000;labelBackgroundColor=none;fontStyle=1;fontSize=18;" parent="99" vertex="1">
                    <mxGeometry y="52" width="250.5" height="26" as="geometry"/>
                </mxCell>
                <mxCell id="103" value="" style="endArrow=none;html=1;strokeColor=#000000;fontColor=#000000;fontSize=18;entryX=1;entryY=1;entryDx=0;entryDy=0;exitX=1;exitY=0.25;exitDx=0;exitDy=0;" parent="81" edge="1" target="164" source="99">
                    <mxGeometry width="50" height="50" relative="1" as="geometry">
                        <mxPoint x="303.25" y="690" as="sourcePoint"/>
                        <mxPoint x="413.25" y="690" as="targetPoint"/>
                    </mxGeometry>
                </mxCell>
                <mxCell id="104" value="0...n" style="text;html=1;align=center;verticalAlign=middle;whiteSpace=wrap;rounded=0;strokeColor=none;fontColor=#000000;labelBackgroundColor=none;fontStyle=1;fontSize=18;" parent="81" vertex="1">
                    <mxGeometry x="750.12" y="740" width="60" height="30" as="geometry"/>
                </mxCell>
                <mxCell id="35" value="borrowings" style="swimlane;fontStyle=1;childLayout=stackLayout;horizontal=1;startSize=30;horizontalStack=0;resizeParent=1;resizeParentMax=0;resizeLast=0;collapsible=1;marginBottom=0;strokeColor=#ae4132;labelBackgroundColor=none;fillColor=#fad9d5;fontColor=#000000;fontSize=18;" parent="81" vertex="1">
                    <mxGeometry x="794.62" y="300" width="257.75" height="108" as="geometry"/>
                </mxCell>
                <mxCell id="36" value="BoorowingDate: mm/dd/yy" style="text;align=left;verticalAlign=top;spacingLeft=4;spacingRight=4;overflow=hidden;rotatable=0;points=[[0,0.5],[1,0.5]];portConstraint=eastwest;strokeColor=#000000;fontColor=#000000;labelBackgroundColor=none;fontStyle=1;fontSize=18;" parent="35" vertex="1">
                    <mxGeometry y="30" width="257.75" height="26" as="geometry"/>
                </mxCell>
                <mxCell id="161" value="limitDate: mm/dd/yy" style="text;align=left;verticalAlign=top;spacingLeft=4;spacingRight=4;overflow=hidden;rotatable=0;points=[[0,0.5],[1,0.5]];portConstraint=eastwest;strokeColor=#000000;fontColor=#000000;labelBackgroundColor=none;fontStyle=1;fontSize=18;" parent="35" vertex="1">
                    <mxGeometry y="56" width="257.75" height="26" as="geometry"/>
                </mxCell>
                <mxCell id="162" value="giveBackDate: mm/dd/yy" style="text;align=left;verticalAlign=top;spacingLeft=4;spacingRight=4;overflow=hidden;rotatable=0;points=[[0,0.5],[1,0.5]];portConstraint=eastwest;strokeColor=#000000;fontColor=#000000;labelBackgroundColor=none;fontStyle=1;fontSize=18;" parent="35" vertex="1">
                    <mxGeometry y="82" width="257.75" height="26" as="geometry"/>
                </mxCell>
                <mxCell id="41" value="" style="endArrow=none;html=1;exitX=0.5;exitY=0;exitDx=0;exitDy=0;strokeColor=#000000;fontColor=#000000;labelBackgroundColor=none;fontStyle=1;fontSize=18;" parent="81" source="23" target="162" edge="1">
                    <mxGeometry width="50" height="50" relative="1" as="geometry">
                        <mxPoint x="723.25" y="563.5" as="sourcePoint"/>
                        <mxPoint x="520.5" y="540" as="targetPoint"/>
                    </mxGeometry>
                </mxCell>
                <mxCell id="76" value="1...n" style="text;html=1;align=center;verticalAlign=middle;whiteSpace=wrap;rounded=0;strokeColor=none;fontColor=#000000;labelBackgroundColor=none;fontStyle=1;fontSize=18;" parent="81" vertex="1">
                    <mxGeometry x="863.5" y="490" width="60" height="30" as="geometry"/>
                </mxCell>
                <mxCell id="11" value="editior" style="swimlane;fontStyle=1;childLayout=stackLayout;horizontal=1;startSize=30;horizontalStack=0;resizeParent=1;resizeParentMax=0;resizeLast=0;collapsible=1;marginBottom=0;strokeColor=#10739e;labelBackgroundColor=none;fillColor=#b1ddf0;fontColor=#000000;fontSize=18;" parent="81" vertex="1">
                    <mxGeometry x="220" y="490" width="180" height="90" as="geometry"/>
                </mxCell>
                <mxCell id="14" value="ISBN:  Int" style="text;align=left;verticalAlign=middle;spacingLeft=4;spacingRight=4;overflow=hidden;points=[[0,0.5],[1,0.5]];portConstraint=eastwest;rotatable=0;strokeColor=#000000;fontColor=#000000;labelBackgroundColor=none;fontStyle=5;fontSize=18;" parent="11" vertex="1">
                    <mxGeometry y="30" width="180" height="30" as="geometry"/>
                </mxCell>
                <mxCell id="12" value="editorName: String" style="text;align=left;verticalAlign=middle;spacingLeft=4;spacingRight=4;overflow=hidden;points=[[0,0.5],[1,0.5]];portConstraint=eastwest;rotatable=0;strokeColor=#000000;fontColor=#000000;labelBackgroundColor=none;fontStyle=1;fontSize=18;" parent="11" vertex="1">
                    <mxGeometry y="60" width="180" height="30" as="geometry"/>
                </mxCell>
                <mxCell id="50" style="endArrow=none;html=1;strokeColor=#000000;fontColor=#000000;labelBackgroundColor=none;fontStyle=1;entryX=0.5;entryY=0;entryDx=0;entryDy=0;fontSize=18;" parent="81" source="28" target="11" edge="1">
                    <mxGeometry relative="1" as="geometry">
                        <mxPoint x="33.5" y="155" as="targetPoint"/>
                        <mxPoint x="173.5" y="185" as="sourcePoint"/>
                    </mxGeometry>
                </mxCell>
                <mxCell id="69" value="1...n" style="text;html=1;align=center;verticalAlign=middle;whiteSpace=wrap;rounded=0;strokeColor=none;fontColor=#000000;labelBackgroundColor=none;fontStyle=1;fontSize=18;" parent="81" vertex="1">
                    <mxGeometry x="253.5" y="460" width="60" height="30" as="geometry"/>
                </mxCell>
                <mxCell id="70" value="1" style="text;html=1;align=center;verticalAlign=middle;whiteSpace=wrap;rounded=0;strokeColor=none;fontColor=#000000;labelBackgroundColor=none;fontStyle=1;fontSize=18;" parent="81" vertex="1">
                    <mxGeometry x="384" y="310" width="60" height="30" as="geometry"/>
                </mxCell>
                <mxCell id="71" value="1...n" style="text;html=1;align=center;verticalAlign=middle;whiteSpace=wrap;rounded=0;strokeColor=none;fontColor=#000000;labelBackgroundColor=none;fontStyle=1;fontSize=18;" parent="81" vertex="1">
                    <mxGeometry x="613.5" y="150" width="60" height="30" as="geometry"/>
                </mxCell>
                <mxCell id="72" value="1...n" style="text;html=1;align=center;verticalAlign=middle;whiteSpace=wrap;rounded=0;strokeColor=none;fontColor=#000000;labelBackgroundColor=none;fontStyle=1;fontSize=18;" parent="81" vertex="1">
                    <mxGeometry x="837.5" y="150" width="60" height="30" as="geometry"/>
                </mxCell>
                <mxCell id="146" value="item" style="swimlane;fontStyle=1;childLayout=stackLayout;horizontal=1;startSize=30;horizontalStack=0;resizeParent=1;resizeParentMax=0;resizeLast=0;collapsible=1;marginBottom=0;strokeColor=#10739e;labelBackgroundColor=none;fillColor=#b1ddf0;fontColor=#000000;fontSize=18;" parent="81" vertex="1">
                    <mxGeometry x="427.5" y="310" width="186" height="60" as="geometry"/>
                </mxCell>
                <mxCell id="147" value="Id: Int" style="text;align=left;verticalAlign=middle;spacingLeft=4;spacingRight=4;overflow=hidden;points=[[0,0.5],[1,0.5]];portConstraint=eastwest;rotatable=0;strokeColor=#000000;fontColor=#000000;labelBackgroundColor=none;fontStyle=5;fontSize=18;" parent="146" vertex="1">
                    <mxGeometry y="30" width="186" height="30" as="geometry"/>
                </mxCell>
                <mxCell id="151" value="" style="endArrow=none;html=1;exitX=0;exitY=0.5;exitDx=0;exitDy=0;strokeColor=#000000;fontColor=#000000;fontSize=18;entryX=1;entryY=0.5;entryDx=0;entryDy=0;" parent="81" source="36" target="146" edge="1">
                    <mxGeometry width="50" height="50" relative="1" as="geometry">
                        <mxPoint x="513.5" y="410" as="sourcePoint"/>
                        <mxPoint x="520.5" y="355" as="targetPoint"/>
                    </mxGeometry>
                </mxCell>
                <mxCell id="152" value="" style="endArrow=none;html=1;strokeColor=#000000;entryX=0.5;entryY=0;entryDx=0;entryDy=0;fontColor=#000000;fontSize=18;" parent="81" source="74" target="146" edge="1">
                    <mxGeometry width="50" height="50" relative="1" as="geometry">
                        <mxPoint x="513.5" y="410" as="sourcePoint"/>
                        <mxPoint x="563.5" y="360" as="targetPoint"/>
                    </mxGeometry>
                </mxCell>
                <mxCell id="153" value="1...n" style="text;html=1;align=center;verticalAlign=middle;whiteSpace=wrap;rounded=0;strokeColor=none;fontColor=#000000;labelBackgroundColor=none;fontStyle=1;fontSize=18;" parent="81" vertex="1">
                    <mxGeometry x="513.5" y="240" width="60" height="30" as="geometry"/>
                </mxCell>
                <mxCell id="154" value="0...n" style="text;html=1;align=center;verticalAlign=middle;whiteSpace=wrap;rounded=0;strokeColor=none;fontColor=#000000;labelBackgroundColor=none;fontStyle=1;fontSize=18;" parent="81" vertex="1">
                    <mxGeometry x="620" y="310" width="60" height="30" as="geometry"/>
                </mxCell>
                <mxCell id="158" value="hasEdited" style="swimlane;fontStyle=1;childLayout=stackLayout;horizontal=1;startSize=30;horizontalStack=0;resizeParent=1;resizeParentMax=0;resizeLast=0;collapsible=1;marginBottom=0;strokeColor=#ae4132;labelBackgroundColor=none;fillColor=#fad9d5;fontColor=#000000;fontSize=18;" parent="81" vertex="1">
                    <mxGeometry x="233.5" y="310" width="153" height="60" as="geometry"/>
                </mxCell>
                <mxCell id="28" value="Year: Int" style="text;align=left;verticalAlign=middle;spacingLeft=4;spacingRight=4;overflow=hidden;points=[[0,0.5],[1,0.5]];portConstraint=eastwest;rotatable=0;strokeColor=#000000;fontColor=#000000;labelBackgroundColor=none;fontStyle=1;fontSize=18;" parent="158" vertex="1">
                    <mxGeometry y="30" width="153" height="30" as="geometry"/>
                </mxCell>
                <mxCell id="164" value="0...n" style="text;html=1;align=center;verticalAlign=middle;whiteSpace=wrap;rounded=0;strokeColor=none;fontColor=#000000;labelBackgroundColor=none;fontStyle=1;fontSize=18;" vertex="1" parent="81">
                    <mxGeometry x="750.12" y="610" width="60" height="30" as="geometry"/>
                </mxCell>
                <mxCell id="168" value="" style="endArrow=none;html=1;fontSize=18;exitX=0.373;exitY=1.036;exitDx=0;exitDy=0;exitPerimeter=0;entryX=-0.012;entryY=0.187;entryDx=0;entryDy=0;entryPerimeter=0;strokeColor=#000000;" edge="1" parent="81" source="144" target="67">
                    <mxGeometry width="50" height="50" relative="1" as="geometry">
                        <mxPoint x="543.5" y="640" as="sourcePoint"/>
                        <mxPoint x="593.5" y="590" as="targetPoint"/>
                        <Array as="points">
                            <mxPoint x="586.5" y="766"/>
                        </Array>
                    </mxGeometry>
                </mxCell>
            </root>
        </mxGraphModel>
    </diagram>
</mxfile>